<svg width="80" height="80" viewBox="0 0 80 80" fill="none" xmlns="http://www.w3.org/2000/svg">
<path fill-rule="evenodd" clip-rule="evenodd" d="M75 40C75 59.33 59.33 75 40 75C20.67 75 5 59.33 5 40C5 20.67 20.67 5 40 5C59.33 5 75 20.67 75 40ZM23 57C24.6569 57 26 55.6569 26 54V43H33.3781C34.7102 48.1757 39.4085 52 45 52C50.5915 52 55.2898 48.1757 56.6219 43H66C67.6569 43 69 41.6569 69 40C69 38.3431 67.6569 37 66 37H56.6219C55.2898 31.8243 50.5915 28 45 28C39.4085 28 34.7102 31.8243 33.3781 37H26V26C26 24.3431 24.6569 23 23 23C21.3431 23 20 24.3431 20 26V37H15C13.3431 37 12 38.3431 12 40C12 41.6569 13.3431 43 15 43H20V54C20 55.6569 21.3431 57 23 57ZM51 40C51 41.0929 50.7078 42.1175 50.1973 43C49.1599 44.7934 47.2208 46 45 46C42.7792 46 40.8401 44.7934 39.8027 43C39.2922 42.1175 39 41.0929 39 40C39 38.9071 39.2922 37.8825 39.8027 37C40.8401 35.2066 42.7792 34 45 34C47.2208 34 49.1599 35.2066 50.1973 37C50.7078 37.8825 51 38.9071 51 40Z" fill="black"/>
</svg>
