<svg width="80" height="80" viewBox="0 0 80 80" fill="none" xmlns="http://www.w3.org/2000/svg">
<path fill-rule="evenodd" clip-rule="evenodd" d="M40 75C59.33 75 75 59.33 75 40C75 20.67 59.33 5 40 5C20.67 5 5 20.67 5 40C5 59.33 20.67 75 40 75ZM17 42.9025C15.3431 42.9025 14 41.5594 14 39.9025C14 38.2457 15.3431 36.9025 17 36.9025H32.9862L15.5981 26.5986C14.1632 25.7702 13.6716 23.9354 14.5 22.5005C15.3284 21.0656 17.1632 20.574 18.5981 21.4024L45.4091 36.8818L45.4036 36.9025H45.445L45.4091 36.8818C46.7819 31.7662 51.4511 28 57 28C62.579 28 67.2687 31.8072 68.6129 36.9652C69.9758 37.2481 71 38.4557 71 39.9025C71 41.331 70.0017 42.5262 68.6647 42.8286C67.3931 48.091 62.6531 52 57 52C51.3734 52 46.6513 48.1276 45.3534 42.9025H44.9862L18.6801 58.0904C17.2452 58.9188 15.4105 58.4272 14.582 56.9923C13.7536 55.5574 14.2452 53.7227 15.6801 52.8942L32.9862 42.9025H17ZM62.1397 36.9025C61.0891 35.163 59.1804 34 57 34C54.8196 34 52.9109 35.163 51.8603 36.9025C51.3142 37.8067 51 38.8667 51 40C51 41.0529 51.2712 42.0424 51.7475 42.9025C52.7704 44.7496 54.7392 46 57 46C59.2608 46 61.2296 44.7496 62.2525 42.9025C62.7288 42.0424 63 41.0529 63 40C63 38.8667 62.6858 37.8067 62.1397 36.9025Z" fill="black"/>
</svg>
