<svg width="80" height="80" viewBox="0 0 80 80" fill="none" xmlns="http://www.w3.org/2000/svg">
<path fill-rule="evenodd" clip-rule="evenodd" d="M75 40C75 59.33 59.33 75 40 75C20.67 75 5 59.33 5 40C5 20.67 20.67 5 40 5C59.33 5 75 20.67 75 40ZM41 26C41 24.3431 39.6569 23 38 23C36.3431 23 35 24.3431 35 26V37H26V26C26 24.3431 24.6569 23 23 23C21.3431 23 20 24.3431 20 26V37H15C13.3431 37 12 38.3431 12 40C12 41.6569 13.3431 43 15 43H20V54C20 55.6569 21.3431 57 23 57C24.6569 57 26 55.6569 26 54V43H35V54C35 55.6569 36.3431 57 38 57C39.6569 57 41 55.6569 41 54V43H66C67.6569 43 69 41.6569 69 40C69 38.3431 67.6569 37 66 37H41V26Z" fill="black"/>
</svg>
