<svg width="80" height="80" viewBox="0 0 80 80" fill="none" xmlns="http://www.w3.org/2000/svg">
<path fill-rule="evenodd" clip-rule="evenodd" d="M40 75C59.33 75 75 59.33 75 40C75 20.67 59.33 5 40 5C20.67 5 5 20.67 5 40C5 59.33 20.67 75 40 75ZM44.9862 42.9025L18.6801 58.0904C17.2452 58.9188 15.4105 58.4272 14.582 56.9923C13.7536 55.5574 14.2452 53.7227 15.6801 52.8942L32.9862 42.9025H17C15.3431 42.9025 14 41.5594 14 39.9025C14 38.2457 15.3431 36.9025 17 36.9025H32.9862L15.5981 26.5986C14.1632 25.7702 13.6716 23.9354 14.5 22.5005C15.3284 21.0656 17.1632 20.574 18.5981 21.4024L44.9862 36.9025H46V26C46 24.3431 47.3431 23 49 23C50.6569 23 52 24.3431 52 26V36.9025H68C69.6569 36.9025 71 38.2457 71 39.9025C71 41.5594 69.6569 42.9025 68 42.9025H52V53C52 54.6569 50.6569 56 49 56C47.3431 56 46 54.6569 46 53V42.9025H44.9862Z" fill="black"/>
</svg>
